<svg xmlns="http://www.w3.org/2000/svg" width="330" height="330" viewBox="0 0 330 330"><defs><mask id="a" width="330" height="330" x="0" y="0" maskUnits="userSpaceOnUse"><rect width="330" height="330" fill="#fff" rx="16.5"/></mask><mask id="b" width="330" height="330" x="0" y="0" maskUnits="userSpaceOnUse"><g fill="#fff"><circle cx="25.321" cy="144.964" r="4.606"/><circle cx="24.355" cy="193.941" r="3.891"/><circle cx="24.72" cy="204.808" r="4.034"/><circle cx="24.703" cy="214.693" r="4.658"/><circle cx="25.386" cy="224.732" r="4.396"/><circle cx="35.282" cy="104.089" r="3.833"/><circle cx="34.999" cy="165.008" r="4.881"/><circle cx="35.004" cy="205.238" r="4.68"/><circle cx="34.183" cy="214.359" r="3.773"/><circle cx="35.133" cy="225.048" r="4.864"/><circle cx="44.786" cy="115.121" r="4.756"/><circle cx="45.607" cy="124.355" r="4.3"/><circle cx="45.874" cy="154.883" r="3.781"/><circle cx="44.44" cy="173.97" r="3.757"/><circle cx="44.629" cy="185.148" r="4.541"/><circle cx="44.853" cy="194.219" r="4.03"/><circle cx="44.232" cy="215.135" r="4.12"/><circle cx="45.368" cy="225.758" r="3.831"/><circle cx="54.534" cy="105.428" r="3.899"/><circle cx="54.236" cy="115.658" r="3.828"/><circle cx="55.206" cy="154.905" r="4.775"/><circle cx="54.234" cy="165.878" r="3.775"/><circle cx="56.106" cy="175.572" r="3.802"/><circle cx="54.846" cy="195.275" r="4.157"/><circle cx="55.024" cy="225.06" r="4.848"/><circle cx="65.085" cy="105.057" r="4.9"/><circle cx="64.96" cy="114.978" r="4.944"/><circle cx="65.015" cy="125.208" r="4.406"/><circle cx="64.609" cy="135.486" r="4.511"/><circle cx="65.803" cy="144.606" r="4.049"/><circle cx="64.688" cy="155.833" r="3.957"/><circle cx="65.236" cy="174.685" r="4.559"/><circle cx="74.693" cy="103.892" r="3.806"/><circle cx="75.075" cy="115.783" r="3.913"/><circle cx="74.842" cy="124.537" r="4.084"/><circle cx="75.828" cy="145.839" r="3.909"/><circle cx="75.792" cy="154.696" r="3.805"/><circle cx="75.086" cy="194.823" r="4.193"/><circle cx="85.929" cy="104.97" r="4.021"/><circle cx="84.862" cy="125.372" r="3.973"/><circle cx="85.014" cy="145.112" r="4.83"/><circle cx="85.112" cy="165.156" r="4.072"/><circle cx="85.794" cy="184.445" r="3.851"/><circle cx="84.952" cy="204.925" r="4.92"/><circle cx="85.394" cy="224.31" r="3.985"/><circle cx="95.022" cy="125.419" r="3.811"/><circle cx="94.491" cy="144.907" r="4.203"/><circle cx="95.005" cy="154.993" r="4.991"/><circle cx="94.64" cy="164.893" r="4.426"/><circle cx="94.903" cy="174.766" r="4.71"/><circle cx="95.598" cy="204.683" r="4.143"/><circle cx="94.397" cy="215.431" r="3.781"/><circle cx="104.843" cy="34.786" r="4.761"/><circle cx="104.73" cy="54.419" r="4.214"/><circle cx="104.262" cy="64.465" r="4.016"/><circle cx="105.267" cy="84.661" r="4.545"/><circle cx="105" cy="95.186" r="4.787"/><circle cx="105.055" cy="105.137" r="4.523"/><circle cx="104.811" cy="134.887" r="4.761"/><circle cx="104.104" cy="156.156" r="3.789"/><circle cx="104.955" cy="164.785" r="4.677"/><circle cx="105.532" cy="205.161" r="4.261"/><circle cx="105.153" cy="214.612" r="4.237"/><circle cx="105.376" cy="225.682" r="4.139"/><circle cx="105.189" cy="235.116" r="4.745"/><circle cx="104.514" cy="254.009" r="3.797"/><circle cx="105.004" cy="265.011" r="4.982"/><circle cx="105.141" cy="275.36" r="4.041"/><circle cx="104.826" cy="294.979" r="4.005"/><circle cx="115.206" cy="25.212" r="4.621"/><circle cx="114.962" cy="54.871" r="4.374"/><circle cx="114.963" cy="65.193" r="4.519"/><circle cx="114.992" cy="95.646" r="4.286"/><circle cx="114.654" cy="115.219" r="4.6"/><circle cx="115.003" cy="124.993" r="4.95"/><circle cx="115.338" cy="154.478" r="4.307"/><circle cx="114.937" cy="184.946" r="4.883"/><circle cx="114.75" cy="195.108" r="4.661"/><circle cx="115.03" cy="224.891" r="4.829"/><circle cx="114.843" cy="245.736" r="3.848"/><circle cx="115.033" cy="254.994" r="4.921"/><circle cx="114.995" cy="274.964" r="4.952"/><circle cx="114.336" cy="284.215" r="3.936"/><circle cx="114.8" cy="294.685" r="3.956"/><circle cx="114.88" cy="305.026" r="4.596"/><circle cx="124.795" cy="25.362" r="4.542"/><circle cx="124.645" cy="54.463" r="4.346"/><circle cx="124.443" cy="64.409" r="3.852"/><circle cx="124.069" cy="74.764" r="4.047"/><circle cx="124.659" cy="84.715" r="4.121"/><circle cx="124.882" cy="134.938" r="4.64"/><circle cx="124.99" cy="174.566" r="4.375"/><circle cx="124.383" cy="195.68" r="4.056"/><circle cx="124.604" cy="224.694" r="4.582"/><circle cx="125.492" cy="254.962" r="4.377"/><circle cx="125.157" cy="294.899" r="4.614"/><circle cx="125.071" cy="305.131" r="4.781"/><circle cx="135.731" cy="35.356" r="4.261"/><circle cx="135.221" cy="54.807" r="4.661"/><circle cx="135.014" cy="75.016" r="4.973"/><circle cx="135.252" cy="104.512" r="4.349"/><circle cx="134.997" cy="124.714" r="4.572"/><circle cx="134.968" cy="134.57" r="4.438"/><circle cx="134.638" cy="166.01" r="3.974"/><circle cx="135.025" cy="204.26" r="4.257"/><circle cx="134.692" cy="285.599" r="4.126"/><circle cx="134.422" cy="294.4" r="4.303"/><circle cx="134.973" cy="304.585" r="3.802"/><circle cx="144.375" cy="34.483" r="4.134"/><circle cx="145.16" cy="64.782" r="4.712"/><circle cx="144.943" cy="85.857" r="4.023"/><circle cx="145.089" cy="95.247" r="4.493"/><circle cx="145.312" cy="104.713" r="4.507"/><circle cx="145.861" cy="124.907" r="3.931"/><circle cx="145.772" cy="165.487" r="3.851"/><circle cx="145.689" cy="215.67" r="4.212"/><circle cx="143.973" cy="225.785" r="3.808"/><circle cx="145.816" cy="235.85" r="4.012"/><circle cx="144.653" cy="265.005" r="4.298"/><circle cx="144.872" cy="275.235" r="4.703"/><circle cx="144.369" cy="295.395" r="4.268"/><circle cx="155.27" cy="25.28" r="4.368"/><circle cx="154.537" cy="65.096" r="4.525"/><circle cx="155.131" cy="75.032" r="4.382"/><circle cx="154.032" cy="94.433" r="4.006"/><circle cx="154.428" cy="115.166" r="4.271"/><circle cx="155.355" cy="144.672" r="4.518"/><circle cx="154.973" cy="155.017" r="4.936"/><circle cx="154.833" cy="184.512" r="3.997"/><circle cx="155.382" cy="195.033" r="4.53"/><circle cx="154.898" cy="214.686" r="4.649"/><circle cx="154.583" cy="223.848" r="3.846"/><circle cx="155.203" cy="234.726" r="4.477"/><circle cx="155.654" cy="254.413" r="4.27"/><circle cx="155.083" cy="265.059" r="4.88"/><circle cx="155.478" cy="285.141" r="4.486"/><circle cx="165.055" cy="25.068" r="4.926"/><circle cx="164.988" cy="34.9" r="4.408"/><circle cx="164.694" cy="74.546" r="3.757"/><circle cx="164.886" cy="85.295" r="4.546"/><circle cx="164.608" cy="125.231" r="4.441"/><circle cx="164.961" cy="144.754" r="4.63"/><circle cx="165.219" cy="155.395" r="4.25"/><circle cx="164.99" cy="174.99" r="4.988"/><circle cx="165.022" cy="185.153" r="4.729"/><circle cx="165.14" cy="195.071" r="4.607"/><circle cx="164.591" cy="204.427" r="3.777"/><circle cx="165.439" cy="215.542" r="4.25"/><circle cx="164.43" cy="225.597" r="4.379"/><circle cx="165.196" cy="255.098" r="4.378"/><circle cx="165.165" cy="275.275" r="4.308"/><circle cx="164.979" cy="294.776" r="4.752"/><circle cx="175.044" cy="25.098" r="4.893"/><circle cx="174.521" cy="76.137" r="3.854"/><circle cx="175.1" cy="136.01" r="3.774"/><circle cx="175.139" cy="154.87" r="3.921"/><circle cx="174.82" cy="185.189" r="4.698"/><circle cx="174.994" cy="204.985" r="4.976"/><circle cx="174.659" cy="224.757" r="4.497"/><circle cx="175.914" cy="234.543" r="3.963"/><circle cx="174.702" cy="244.955" r="3.907"/><circle cx="175.444" cy="255.354" r="3.849"/><circle cx="175.41" cy="265.221" r="4.524"/><circle cx="175.111" cy="295.446" r="3.891"/><circle cx="184.519" cy="25.138" r="4.315"/><circle cx="184.823" cy="45.486" r="4.34"/><circle cx="185.302" cy="55.244" r="4.335"/><circle cx="185.457" cy="75.874" r="3.902"/><circle cx="185.653" cy="84.22" r="4.219"/><circle cx="185.105" cy="105.35" r="4.389"/><circle cx="185.116" cy="114.89" r="4.838"/><circle cx="185.112" cy="125.078" r="4.871"/><circle cx="184.363" cy="135.463" r="3.961"/><circle cx="185.078" cy="165.39" r="4.596"/><circle cx="184.768" cy="184.625" r="4.583"/><circle cx="185.042" cy="195.039" r="4.681"/><circle cx="185.55" cy="224.988" r="3.786"/><circle cx="184.322" cy="255.52" r="4.259"/><circle cx="184.293" cy="266.012" r="3.92"/><circle cx="184.554" cy="275.124" r="4.316"/><circle cx="184.38" cy="285.344" r="4.328"/><circle cx="184.372" cy="305.528" r="4.145"/><circle cx="194.87" cy="54.933" r="4.835"/><circle cx="195.232" cy="65.778" r="4.042"/><circle cx="195.262" cy="75.138" r="4.531"/><circle cx="195.105" cy="115.059" r="4.105"/><circle cx="194.779" cy="134.942" r="4.55"/><circle cx="195.128" cy="155.077" r="4.802"/><circle cx="194.659" cy="165.264" r="4.35"/><circle cx="194.966" cy="175.056" r="4.93"/><circle cx="195.067" cy="184.971" r="4.799"/><circle cx="195.588" cy="225.326" r="4.288"/><circle cx="194.963" cy="245.003" r="4.955"/><circle cx="195.257" cy="254.559" r="4.382"/><circle cx="194.302" cy="265.604" r="4.083"/><circle cx="195.399" cy="275.065" r="4.42"/><circle cx="194.828" cy="285.287" r="4.571"/><circle cx="205.753" cy="25.505" r="4.068"/><circle cx="204.25" cy="44.281" r="4.03"/><circle cx="204.295" cy="64.313" r="3.961"/><circle cx="205.621" cy="74.904" r="4.256"/><circle cx="205.856" cy="85.199" r="3.903"/><circle cx="205.34" cy="105.124" r="3.911"/><circle cx="205.941" cy="134.172" r="3.813"/><circle cx="205.317" cy="144.86" r="4.313"/><circle cx="205.14" cy="156.001" r="3.776"/><circle cx="204.061" cy="174.676" r="4.02"/><circle cx="205.162" cy="195.306" r="4.661"/><circle cx="205.097" cy="215.296" r="4.408"/><circle cx="204.939" cy="235.123" r="4.81"/><circle cx="205.074" cy="245.057" r="4.832"/><circle cx="204.979" cy="265.518" r="4.399"/><circle cx="214.997" cy="24.729" r="4.684"/><circle cx="215.032" cy="55.029" r="4.892"/><circle cx="215.138" cy="64.976" r="4.728"/><circle cx="214.335" cy="104.582" r="4.305"/><circle cx="215.636" cy="144.615" r="4.22"/><circle cx="215.573" cy="165.398" r="4.024"/><circle cx="215.02" cy="234.989" r="4.755"/><circle cx="215.691" cy="243.929" r="3.881"/><circle cx="214.915" cy="255.041" r="4.842"/><circle cx="215.264" cy="265.184" r="4.661"/><circle cx="215.063" cy="294.981" r="4.712"/><circle cx="225.203" cy="34.456" r="4.334"/><circle cx="225.035" cy="45.139" r="4.85"/><circle cx="225" cy="55.038" r="4.84"/><circle cx="224.611" cy="84.577" r="3.937"/><circle cx="225.062" cy="95.561" r="4.084"/><circle cx="224.293" cy="104.75" r="4.248"/><circle cx="225.106" cy="114.992" r="4.826"/><circle cx="225.052" cy="164.964" r="4.939"/><circle cx="225.627" cy="175.73" r="3.852"/><circle cx="224.763" cy="186.224" r="3.761"/><circle cx="224.673" cy="195.262" r="4.622"/><circle cx="224.934" cy="204.955" r="4.881"/><circle cx="225.031" cy="225.025" r="4.871"/><circle cx="224.107" cy="234.984" r="3.966"/><circle cx="224.668" cy="245.396" r="4.592"/><circle cx="224.758" cy="254.972" r="4.436"/><circle cx="224.24" cy="264.226" r="3.979"/><circle cx="224.967" cy="284.93" r="4.832"/><circle cx="225.002" cy="294.962" r="4.893"/><circle cx="225.452" cy="304.732" r="3.862"/><circle cx="234.89" cy="104.944" r="4.741"/><circle cx="235.3" cy="124.928" r="4.646"/><circle cx="234.889" cy="145.195" r="4.714"/><circle cx="234.866" cy="215.17" r="4.806"/><circle cx="235.036" cy="224.698" r="4.136"/><circle cx="234.603" cy="264.753" r="4.096"/><circle cx="234.615" cy="285.174" r="4.017"/><circle cx="245.39" cy="104.425" r="4.247"/><circle cx="244.858" cy="114.645" r="4.369"/><circle cx="245.012" cy="125.005" r="4.987"/><circle cx="244.039" cy="144.774" r="3.755"/><circle cx="245.102" cy="155.158" r="4.63"/><circle cx="245.016" cy="184.986" r="4.942"/><circle cx="244.376" cy="195.076" r="4.339"/><circle cx="244.039" cy="215.397" r="3.814"/><circle cx="244.857" cy="225.2" r="4.788"/><circle cx="244.589" cy="244.378" r="4.246"/><circle cx="245.2" cy="264.971" r="4.626"/><circle cx="244.888" cy="294.435" r="4.114"/><circle cx="255.503" cy="164.007" r="3.985"/><circle cx="254.801" cy="196.136" r="3.811"/><circle cx="255.033" cy="215.854" r="3.856"/><circle cx="254.985" cy="225.026" r="4.968"/><circle cx="254.673" cy="264.635" r="4.117"/><circle cx="255.302" cy="275.502" r="4.274"/><circle cx="254.958" cy="285.028" r="4.929"/><circle cx="254.532" cy="305.689" r="4.233"/><circle cx="265.152" cy="105.095" r="4.407"/><circle cx="265.105" cy="115.083" r="4.818"/><circle cx="265.025" cy="135.208" r="4.665"/><circle cx="265.676" cy="155.346" r="4.31"/><circle cx="264.948" cy="175.25" r="4.645"/><circle cx="265.02" cy="195.039" r="4.866"/><circle cx="264.584" cy="205.447" r="4.369"/><circle cx="265.395" cy="215.389" r="4.293"/><circle cx="265.075" cy="225.229" r="4.695"/><circle cx="265.688" cy="235.462" r="4.154"/><circle cx="264.872" cy="244.832" r="3.964"/><circle cx="264.909" cy="254.816" r="4.293"/><circle cx="264.882" cy="264.302" r="4.143"/><circle cx="264.904" cy="284.835" r="4.637"/><circle cx="264.622" cy="295.662" r="4.148"/><circle cx="265.284" cy="304.837" r="4.385"/><circle cx="274.332" cy="105.283" r="4.264"/><circle cx="274.392" cy="125.203" r="4.209"/><circle cx="274.933" cy="134.126" r="4.044"/><circle cx="275.302" cy="145.85" r="3.864"/><circle cx="275.582" cy="165.34" r="4.351"/><circle cx="274.401" cy="175.638" r="4.358"/><circle cx="274.959" cy="185.097" r="4.614"/><circle cx="275.146" cy="224.958" r="4.697"/><circle cx="275.41" cy="236.092" r="3.899"/><circle cx="275.375" cy="255.955" r="3.887"/><circle cx="275.15" cy="295.176" r="4.717"/><circle cx="284.459" cy="115.052" r="4.15"/><circle cx="285.286" cy="124.179" r="4.115"/><circle cx="285.146" cy="145.079" r="4.72"/><circle cx="284.308" cy="155.51" r="4.203"/><circle cx="284.786" cy="175.053" r="4.173"/><circle cx="284.711" cy="204.507" r="4.457"/><circle cx="285.699" cy="214.315" r="4.278"/><circle cx="285.054" cy="234.901" r="4.779"/><circle cx="284.427" cy="244.633" r="4.324"/><circle cx="284.922" cy="294.991" r="4.915"/><circle cx="295.223" cy="104.482" r="4.425"/><circle cx="294.565" cy="114.429" r="4.298"/><circle cx="294.966" cy="144.986" r="4.866"/><circle cx="294.961" cy="154.849" r="4.83"/><circle cx="294.964" cy="164.227" r="4.05"/><circle cx="294.532" cy="174.545" r="4.462"/><circle cx="295.35" cy="245.217" r="4.533"/><circle cx="295.279" cy="255.033" r="4.565"/><circle cx="295.007" cy="275.002" r="4.983"/><circle cx="294.939" cy="285.086" r="4.669"/><circle cx="304.566" cy="134.558" r="4.477"/><circle cx="304.717" cy="154.626" r="4.555"/><circle cx="304.369" cy="164.387" r="3.756"/><circle cx="305.075" cy="184.998" r="4.72"/><circle cx="305.53" cy="205.504" r="4.192"/><circle cx="304.79" cy="215.148" r="4.764"/><circle cx="304.217" cy="225.343" r="4.177"/><circle cx="305.085" cy="265.488" r="4.495"/><circle cx="305.415" cy="285.248" r="4.452"/><circle cx="305.128" cy="294.878" r="4.764"/></g></mask><mask id="c" width="330" height="330" x="0" y="0" maskUnits="userSpaceOnUse"><path fill="#fff" d="M20 45v20a25 25 0 0 0 25 25h20a25 25 0 0 0 25-25V45a25 25 0 0 0-25-25H45a25 25 0 0 0-25 25m25-15h20a15 15 0 0 1 15 15v20a15 15 0 0 1-15 15H45a15 15 0 0 1-15-15V45a15 15 0 0 1 15-15" clip-rule="evenodd"/></mask><mask id="d" width="330" height="330" x="0" y="0" maskUnits="userSpaceOnUse"><rect width="30" height="30" x="40" y="40" fill="#fff" rx="7.5" ry="7.5"/></mask><mask id="e" width="330" height="330" x="0" y="0" maskUnits="userSpaceOnUse"><path fill="#fff" d="M240 45v20a25 25 0 0 0 25 25h20a25 25 0 0 0 25-25V45a25 25 0 0 0-25-25h-20a25 25 0 0 0-25 25m25-15h20a15 15 0 0 1 15 15v20a15 15 0 0 1-15 15h-20a15 15 0 0 1-15-15V45a15 15 0 0 1 15-15" clip-rule="evenodd"/></mask><mask id="f" width="330" height="330" x="0" y="0" maskUnits="userSpaceOnUse"><rect width="30" height="30" x="260" y="40" fill="#fff" rx="7.5" ry="7.5" transform="rotate(90 275 55)"/></mask><mask id="g" width="330" height="330" x="0" y="0" maskUnits="userSpaceOnUse"><path fill="#fff" d="M20 265v20a25 25 0 0 0 25 25h20a25 25 0 0 0 25-25v-20a25 25 0 0 0-25-25H45a25 25 0 0 0-25 25m25-15h20a15 15 0 0 1 15 15v20a15 15 0 0 1-15 15H45a15 15 0 0 1-15-15v-20a15 15 0 0 1 15-15" clip-rule="evenodd"/></mask><mask id="h" width="330" height="330" x="0" y="0" maskUnits="userSpaceOnUse"><rect width="30" height="30" x="40" y="260" fill="#fff" rx="7.5" ry="7.5" transform="rotate(-90 55 275)"/></mask></defs><path fill="#fff" d="M-10-10h350v350H-10z" style="mask:url(#a)"/><path fill="#151515" d="M10 10h310v310H10z" style="mask:url(#b)"/><path fill="#151515" d="M10 10h90v90H10z" style="mask:url(#c)"/><path fill="#151515" d="M30 30h50v50H30z" style="mask:url(#d)"/><path fill="#151515" d="M230 10h90v90h-90z" style="mask:url(#e)"/><path fill="#151515" d="M250 30h50v50h-50z" style="mask:url(#f)"/><path fill="#151515" d="M10 230h90v90H10z" style="mask:url(#g)"/><path fill="#151515" d="M30 250h50v50H30z" style="mask:url(#h)"/></svg>